<svg width="42" height="41" viewBox="0 0 42 41" fill="none" xmlns="http://www.w3.org/2000/svg">
<path d="M35.7103 4.48975H6.25117C5.54271 4.48975 4.97034 5.06212 4.97034 5.77058V35.2297C4.97034 35.9382 5.54271 36.5105 6.25117 36.5105H35.7103C36.4187 36.5105 36.9911 35.9382 36.9911 35.2297V5.77058C36.9911 5.06212 36.4187 4.48975 35.7103 4.48975ZM32.0119 13.8358H29.4542C27.4489 13.8358 27.0607 14.7884 27.0607 16.1893V19.2753H31.8478L31.2234 24.1065H27.0607V36.5105H22.0694V24.1105H17.8947V19.2753H22.0694V15.713C22.0694 11.5783 24.5951 9.32488 28.2855 9.32488C30.0546 9.32488 31.5716 9.45697 32.0159 9.51701V13.8358H32.0119Z" fill="white"/>
</svg>
